<svg width="24" height="24" viewBox="0 0 24 24" fill="none" xmlns="http://www.w3.org/2000/svg">
<path d="M10.2786 6.817C11.0086 4.939 11.3726 4 12.0006 4C12.6286 4 12.9926 4.939 13.7226 6.817L13.7566 6.904C14.1686 7.965 14.3746 8.496 14.7946 8.818C15.4302 9.16119 16.1471 9.32536 16.8686 9.293L17.0686 9.311C18.8686 9.478 19.7756 9.561 19.9686 10.154C20.1616 10.747 19.4916 11.376 18.1516 12.636L17.7046 13.056C17.2154 13.4238 16.8129 13.8945 16.5256 14.435C16.4963 14.513 16.4719 14.5929 16.4526 14.674C16.3869 15.2885 16.4531 15.91 16.6466 16.497L16.7086 16.785C17.0736 18.485 17.2566 19.334 16.9376 19.701C16.8199 19.8371 16.6648 19.9359 16.4916 19.985C16.0316 20.115 15.3776 19.565 14.0716 18.465C13.2136 17.743 12.7846 17.382 12.2916 17.301C12.098 17.269 11.9003 17.269 11.7066 17.301C11.2136 17.382 10.7846 17.743 9.92665 18.465C8.61965 19.565 7.96665 20.115 7.50665 19.985C7.33347 19.9359 7.17844 19.8371 7.06065 19.701C6.74165 19.335 6.92465 18.485 7.28965 16.785L7.35165 16.497C7.54526 15.9101 7.6114 15.2885 7.54565 14.674C7.52642 14.5929 7.50204 14.513 7.47265 14.435C7.18567 13.8966 6.78426 13.4276 6.29665 13.061L5.84965 12.641C4.50965 11.382 3.83965 10.752 4.03265 10.159C4.22565 9.566 5.12565 9.483 6.93265 9.317L7.13265 9.299C7.85423 9.33136 8.57107 9.16719 9.20665 8.824C9.62665 8.502 9.83265 7.971 10.2446 6.91L10.2786 6.817Z" fill="#9F3C07"/>
<path d="M10.2786 6.817C11.0086 4.939 11.3726 4 12.0006 4C12.6286 4 12.9926 4.939 13.7226 6.817L13.7566 6.904C14.1686 7.965 14.3746 8.496 14.7946 8.818C15.4302 9.16119 16.1471 9.32536 16.8686 9.293L17.0686 9.311C18.8686 9.478 19.7756 9.561 19.9686 10.154C20.1616 10.747 19.4916 11.376 18.1516 12.636L17.7046 13.056C17.2154 13.4238 16.8129 13.8945 16.5256 14.435C16.4963 14.513 16.4719 14.5929 16.4526 14.674C16.3869 15.2885 16.4531 15.91 16.6466 16.497L16.7086 16.785C17.0736 18.485 17.2566 19.334 16.9376 19.701C16.8199 19.8371 16.6648 19.9359 16.4916 19.985C16.0316 20.115 15.3776 19.565 14.0716 18.465C13.2136 17.743 12.7846 17.382 12.2916 17.301C12.098 17.269 11.9003 17.269 11.7066 17.301C11.2136 17.382 10.7846 17.743 9.92665 18.465C8.61965 19.565 7.96665 20.115 7.50665 19.985C7.33347 19.9359 7.17844 19.8371 7.06065 19.701C6.74165 19.335 6.92465 18.485 7.28965 16.785L7.35165 16.497C7.54526 15.9101 7.6114 15.2885 7.54565 14.674C7.52642 14.5929 7.50204 14.513 7.47265 14.435C7.18567 13.8966 6.78426 13.4276 6.29665 13.061L5.84965 12.641C4.50965 11.382 3.83965 10.752 4.03265 10.159C4.22565 9.566 5.12565 9.483 6.93265 9.317L7.13265 9.299C7.85423 9.33136 8.57107 9.16719 9.20665 8.824C9.62665 8.502 9.83265 7.971 10.2446 6.91L10.2786 6.817Z" fill="#B3470E"/>
<path d="M10.2786 6.817C11.0086 4.939 11.3726 4 12.0006 4C12.6286 4 12.9926 4.939 13.7226 6.817L13.7566 6.904C14.1686 7.965 14.3746 8.496 14.7946 8.818C15.4302 9.16119 16.1471 9.32536 16.8686 9.293L17.0686 9.311C18.8686 9.478 19.7756 9.561 19.9686 10.154C20.1616 10.747 19.4916 11.376 18.1516 12.636L17.7046 13.056C17.2154 13.4238 16.8129 13.8945 16.5256 14.435C16.4963 14.513 16.4719 14.5929 16.4526 14.674C16.3869 15.2885 16.4531 15.91 16.6466 16.497L16.7086 16.785C17.0736 18.485 17.2566 19.334 16.9376 19.701C16.8199 19.8371 16.6648 19.9359 16.4916 19.985C16.0316 20.115 15.3776 19.565 14.0716 18.465C13.2136 17.743 12.7846 17.382 12.2916 17.301C12.098 17.269 11.9003 17.269 11.7066 17.301C11.2136 17.382 10.7846 17.743 9.92665 18.465C8.61965 19.565 7.96665 20.115 7.50665 19.985C7.33347 19.9359 7.17844 19.8371 7.06065 19.701C6.74165 19.335 6.92465 18.485 7.28965 16.785L7.35165 16.497C7.54526 15.9101 7.6114 15.2885 7.54565 14.674C7.52642 14.5929 7.50204 14.513 7.47265 14.435C7.18567 13.8966 6.78426 13.4276 6.29665 13.061L5.84965 12.641C4.50965 11.382 3.83965 10.752 4.03265 10.159C4.22565 9.566 5.12565 9.483 6.93265 9.317L7.13265 9.299C7.85423 9.33136 8.57107 9.16719 9.20665 8.824C9.62665 8.502 9.83265 7.971 10.2446 6.91L10.2786 6.817Z" fill="#C65314"/>
<path d="M10.2786 6.817C11.0086 4.939 11.3726 4 12.0006 4C12.6286 4 12.9926 4.939 13.7226 6.817L13.7566 6.904C14.1686 7.965 14.3746 8.496 14.7946 8.818C15.4302 9.16119 16.1471 9.32536 16.8686 9.293L17.0686 9.311C18.8686 9.478 19.7756 9.561 19.9686 10.154C20.1616 10.747 19.4916 11.376 18.1516 12.636L17.7046 13.056C17.2154 13.4238 16.8129 13.8945 16.5256 14.435C16.4963 14.513 16.4719 14.5929 16.4526 14.674C16.3869 15.2885 16.4531 15.91 16.6466 16.497L16.7086 16.785C17.0736 18.485 17.2566 19.334 16.9376 19.701C16.8199 19.8371 16.6648 19.9359 16.4916 19.985C16.0316 20.115 15.3776 19.565 14.0716 18.465C13.2136 17.743 12.7846 17.382 12.2916 17.301C12.098 17.269 11.9003 17.269 11.7066 17.301C11.2136 17.382 10.7846 17.743 9.92665 18.465C8.61965 19.565 7.96665 20.115 7.50665 19.985C7.33347 19.9359 7.17844 19.8371 7.06065 19.701C6.74165 19.335 6.92465 18.485 7.28965 16.785L7.35165 16.497C7.54526 15.9101 7.6114 15.2885 7.54565 14.674C7.52642 14.5929 7.50204 14.513 7.47265 14.435C7.18567 13.8966 6.78426 13.4276 6.29665 13.061L5.84965 12.641C4.50965 11.382 3.83965 10.752 4.03265 10.159C4.22565 9.566 5.12565 9.483 6.93265 9.317L7.13265 9.299C7.85423 9.33136 8.57107 9.16719 9.20665 8.824C9.62665 8.502 9.83265 7.971 10.2446 6.91L10.2786 6.817Z" fill="#F4A57A"/>
<path d="M10.2786 6.817C11.0086 4.939 11.3726 4 12.0006 4C12.6286 4 12.9926 4.939 13.7226 6.817L13.7566 6.904C14.1686 7.965 14.3746 8.496 14.7946 8.818C15.4302 9.16119 16.1471 9.32536 16.8686 9.293L17.0686 9.311C18.8686 9.478 19.7756 9.561 19.9686 10.154C20.1616 10.747 19.4916 11.376 18.1516 12.636L17.7046 13.056C17.2154 13.4238 16.8129 13.8945 16.5256 14.435C16.4963 14.513 16.4719 14.5929 16.4526 14.674C16.3869 15.2885 16.4531 15.91 16.6466 16.497L16.7086 16.785C17.0736 18.485 17.2566 19.334 16.9376 19.701C16.8199 19.8371 16.6648 19.9359 16.4916 19.985C16.0316 20.115 15.3776 19.565 14.0716 18.465C13.2136 17.743 12.7846 17.382 12.2916 17.301C12.098 17.269 11.9003 17.269 11.7066 17.301C11.2136 17.382 10.7846 17.743 9.92665 18.465C8.61965 19.565 7.96665 20.115 7.50665 19.985C7.33347 19.9359 7.17844 19.8371 7.06065 19.701C6.74165 19.335 6.92465 18.485 7.28965 16.785L7.35165 16.497C7.54526 15.9101 7.6114 15.2885 7.54565 14.674C7.52642 14.5929 7.50204 14.513 7.47265 14.435C7.18567 13.8966 6.78426 13.4276 6.29665 13.061L5.84965 12.641C4.50965 11.382 3.83965 10.752 4.03265 10.159C4.22565 9.566 5.12565 9.483 6.93265 9.317L7.13265 9.299C7.85423 9.33136 8.57107 9.16719 9.20665 8.824C9.62665 8.502 9.83265 7.971 10.2446 6.91L10.2786 6.817Z" fill="#F8C3A7"/>
<path d="M10.2786 6.817C11.0086 4.939 11.3726 4 12.0006 4C12.6286 4 12.9926 4.939 13.7226 6.817L13.7566 6.904C14.1686 7.965 14.3746 8.496 14.7946 8.818C15.4302 9.16119 16.1471 9.32536 16.8686 9.293L17.0686 9.311C18.8686 9.478 19.7756 9.561 19.9686 10.154C20.1616 10.747 19.4916 11.376 18.1516 12.636L17.7046 13.056C17.2154 13.4238 16.8129 13.8945 16.5256 14.435C16.4963 14.513 16.4719 14.5929 16.4526 14.674C16.3869 15.2885 16.4531 15.91 16.6466 16.497L16.7086 16.785C17.0736 18.485 17.2566 19.334 16.9376 19.701C16.8199 19.8371 16.6648 19.9359 16.4916 19.985C16.0316 20.115 15.3776 19.565 14.0716 18.465C13.2136 17.743 12.7846 17.382 12.2916 17.301C12.098 17.269 11.9003 17.269 11.7066 17.301C11.2136 17.382 10.7846 17.743 9.92665 18.465C8.61965 19.565 7.96665 20.115 7.50665 19.985C7.33347 19.9359 7.17844 19.8371 7.06065 19.701C6.74165 19.335 6.92465 18.485 7.28965 16.785L7.35165 16.497C7.54526 15.9101 7.6114 15.2885 7.54565 14.674C7.52642 14.5929 7.50204 14.513 7.47265 14.435C7.18567 13.8966 6.78426 13.4276 6.29665 13.061L5.84965 12.641C4.50965 11.382 3.83965 10.752 4.03265 10.159C4.22565 9.566 5.12565 9.483 6.93265 9.317L7.13265 9.299C7.85423 9.33136 8.57107 9.16719 9.20665 8.824C9.62665 8.502 9.83265 7.971 10.2446 6.91L10.2786 6.817Z" fill="#FBE1D3"/>
<path d="M10.2786 6.817C11.0086 4.939 11.3726 4 12.0006 4C12.6286 4 12.9926 4.939 13.7226 6.817L13.7566 6.904C14.1686 7.965 14.3746 8.496 14.7946 8.818C15.4302 9.16119 16.1471 9.32536 16.8686 9.293L17.0686 9.311C18.8686 9.478 19.7756 9.561 19.9686 10.154C20.1616 10.747 19.4916 11.376 18.1516 12.636L17.7046 13.056C17.2154 13.4238 16.8129 13.8945 16.5256 14.435C16.4963 14.513 16.4719 14.5929 16.4526 14.674C16.3869 15.2885 16.4531 15.91 16.6466 16.497L16.7086 16.785C17.0736 18.485 17.2566 19.334 16.9376 19.701C16.8199 19.8371 16.6648 19.9359 16.4916 19.985C16.0316 20.115 15.3776 19.565 14.0716 18.465C13.2136 17.743 12.7846 17.382 12.2916 17.301C12.098 17.269 11.9003 17.269 11.7066 17.301C11.2136 17.382 10.7846 17.743 9.92665 18.465C8.61965 19.565 7.96665 20.115 7.50665 19.985C7.33347 19.9359 7.17844 19.8371 7.06065 19.701C6.74165 19.335 6.92465 18.485 7.28965 16.785L7.35165 16.497C7.54526 15.9101 7.6114 15.2885 7.54565 14.674C7.52642 14.5929 7.50204 14.513 7.47265 14.435C7.18567 13.8966 6.78426 13.4276 6.29665 13.061L5.84965 12.641C4.50965 11.382 3.83965 10.752 4.03265 10.159C4.22565 9.566 5.12565 9.483 6.93265 9.317L7.13265 9.299C7.85423 9.33136 8.57107 9.16719 9.20665 8.824C9.62665 8.502 9.83265 7.971 10.2446 6.91L10.2786 6.817Z" fill="#ED6922"/>
<path d="M10.2786 6.817C11.0086 4.939 11.3726 4 12.0006 4C12.6286 4 12.9926 4.939 13.7226 6.817L13.7566 6.904C14.1686 7.965 14.3746 8.496 14.7946 8.818C15.4302 9.16119 16.1471 9.32536 16.8686 9.293L17.0686 9.311C18.8686 9.478 19.7756 9.561 19.9686 10.154C20.1616 10.747 19.4916 11.376 18.1516 12.636L17.7046 13.056C17.2154 13.4238 16.8129 13.8945 16.5256 14.435C16.4963 14.513 16.4719 14.5929 16.4526 14.674C16.3869 15.2885 16.4531 15.91 16.6466 16.497L16.7086 16.785C17.0736 18.485 17.2566 19.334 16.9376 19.701C16.8199 19.8371 16.6648 19.9359 16.4916 19.985C16.0316 20.115 15.3776 19.565 14.0716 18.465C13.2136 17.743 12.7846 17.382 12.2916 17.301C12.098 17.269 11.9003 17.269 11.7066 17.301C11.2136 17.382 10.7846 17.743 9.92665 18.465C8.61965 19.565 7.96665 20.115 7.50665 19.985C7.33347 19.9359 7.17844 19.8371 7.06065 19.701C6.74165 19.335 6.92465 18.485 7.28965 16.785L7.35165 16.497C7.54526 15.9101 7.6114 15.2885 7.54565 14.674C7.52642 14.5929 7.50204 14.513 7.47265 14.435C7.18567 13.8966 6.78426 13.4276 6.29665 13.061L5.84965 12.641C4.50965 11.382 3.83965 10.752 4.03265 10.159C4.22565 9.566 5.12565 9.483 6.93265 9.317L7.13265 9.299C7.85423 9.33136 8.57107 9.16719 9.20665 8.824C9.62665 8.502 9.83265 7.971 10.2446 6.91L10.2786 6.817Z" stroke="#9F3C07"/>
<path d="M10.2786 6.817C11.0086 4.939 11.3726 4 12.0006 4C12.6286 4 12.9926 4.939 13.7226 6.817L13.7566 6.904C14.1686 7.965 14.3746 8.496 14.7946 8.818C15.4302 9.16119 16.1471 9.32536 16.8686 9.293L17.0686 9.311C18.8686 9.478 19.7756 9.561 19.9686 10.154C20.1616 10.747 19.4916 11.376 18.1516 12.636L17.7046 13.056C17.2154 13.4238 16.8129 13.8945 16.5256 14.435C16.4963 14.513 16.4719 14.5929 16.4526 14.674C16.3869 15.2885 16.4531 15.91 16.6466 16.497L16.7086 16.785C17.0736 18.485 17.2566 19.334 16.9376 19.701C16.8199 19.8371 16.6648 19.9359 16.4916 19.985C16.0316 20.115 15.3776 19.565 14.0716 18.465C13.2136 17.743 12.7846 17.382 12.2916 17.301C12.098 17.269 11.9003 17.269 11.7066 17.301C11.2136 17.382 10.7846 17.743 9.92665 18.465C8.61965 19.565 7.96665 20.115 7.50665 19.985C7.33347 19.9359 7.17844 19.8371 7.06065 19.701C6.74165 19.335 6.92465 18.485 7.28965 16.785L7.35165 16.497C7.54526 15.9101 7.6114 15.2885 7.54565 14.674C7.52642 14.5929 7.50204 14.513 7.47265 14.435C7.18567 13.8966 6.78426 13.4276 6.29665 13.061L5.84965 12.641C4.50965 11.382 3.83965 10.752 4.03265 10.159C4.22565 9.566 5.12565 9.483 6.93265 9.317L7.13265 9.299C7.85423 9.33136 8.57107 9.16719 9.20665 8.824C9.62665 8.502 9.83265 7.971 10.2446 6.91L10.2786 6.817Z" stroke="#B3470E"/>
<path d="M10.2786 6.817C11.0086 4.939 11.3726 4 12.0006 4C12.6286 4 12.9926 4.939 13.7226 6.817L13.7566 6.904C14.1686 7.965 14.3746 8.496 14.7946 8.818C15.4302 9.16119 16.1471 9.32536 16.8686 9.293L17.0686 9.311C18.8686 9.478 19.7756 9.561 19.9686 10.154C20.1616 10.747 19.4916 11.376 18.1516 12.636L17.7046 13.056C17.2154 13.4238 16.8129 13.8945 16.5256 14.435C16.4963 14.513 16.4719 14.5929 16.4526 14.674C16.3869 15.2885 16.4531 15.91 16.6466 16.497L16.7086 16.785C17.0736 18.485 17.2566 19.334 16.9376 19.701C16.8199 19.8371 16.6648 19.9359 16.4916 19.985C16.0316 20.115 15.3776 19.565 14.0716 18.465C13.2136 17.743 12.7846 17.382 12.2916 17.301C12.098 17.269 11.9003 17.269 11.7066 17.301C11.2136 17.382 10.7846 17.743 9.92665 18.465C8.61965 19.565 7.96665 20.115 7.50665 19.985C7.33347 19.9359 7.17844 19.8371 7.06065 19.701C6.74165 19.335 6.92465 18.485 7.28965 16.785L7.35165 16.497C7.54526 15.9101 7.6114 15.2885 7.54565 14.674C7.52642 14.5929 7.50204 14.513 7.47265 14.435C7.18567 13.8966 6.78426 13.4276 6.29665 13.061L5.84965 12.641C4.50965 11.382 3.83965 10.752 4.03265 10.159C4.22565 9.566 5.12565 9.483 6.93265 9.317L7.13265 9.299C7.85423 9.33136 8.57107 9.16719 9.20665 8.824C9.62665 8.502 9.83265 7.971 10.2446 6.91L10.2786 6.817Z" stroke="#C65314"/>
<path d="M10.2786 6.817C11.0086 4.939 11.3726 4 12.0006 4C12.6286 4 12.9926 4.939 13.7226 6.817L13.7566 6.904C14.1686 7.965 14.3746 8.496 14.7946 8.818C15.4302 9.16119 16.1471 9.32536 16.8686 9.293L17.0686 9.311C18.8686 9.478 19.7756 9.561 19.9686 10.154C20.1616 10.747 19.4916 11.376 18.1516 12.636L17.7046 13.056C17.2154 13.4238 16.8129 13.8945 16.5256 14.435C16.4963 14.513 16.4719 14.5929 16.4526 14.674C16.3869 15.2885 16.4531 15.91 16.6466 16.497L16.7086 16.785C17.0736 18.485 17.2566 19.334 16.9376 19.701C16.8199 19.8371 16.6648 19.9359 16.4916 19.985C16.0316 20.115 15.3776 19.565 14.0716 18.465C13.2136 17.743 12.7846 17.382 12.2916 17.301C12.098 17.269 11.9003 17.269 11.7066 17.301C11.2136 17.382 10.7846 17.743 9.92665 18.465C8.61965 19.565 7.96665 20.115 7.50665 19.985C7.33347 19.9359 7.17844 19.8371 7.06065 19.701C6.74165 19.335 6.92465 18.485 7.28965 16.785L7.35165 16.497C7.54526 15.9101 7.6114 15.2885 7.54565 14.674C7.52642 14.5929 7.50204 14.513 7.47265 14.435C7.18567 13.8966 6.78426 13.4276 6.29665 13.061L5.84965 12.641C4.50965 11.382 3.83965 10.752 4.03265 10.159C4.22565 9.566 5.12565 9.483 6.93265 9.317L7.13265 9.299C7.85423 9.33136 8.57107 9.16719 9.20665 8.824C9.62665 8.502 9.83265 7.971 10.2446 6.91L10.2786 6.817Z" stroke="#F4A57A"/>
<path d="M10.2786 6.817C11.0086 4.939 11.3726 4 12.0006 4C12.6286 4 12.9926 4.939 13.7226 6.817L13.7566 6.904C14.1686 7.965 14.3746 8.496 14.7946 8.818C15.4302 9.16119 16.1471 9.32536 16.8686 9.293L17.0686 9.311C18.8686 9.478 19.7756 9.561 19.9686 10.154C20.1616 10.747 19.4916 11.376 18.1516 12.636L17.7046 13.056C17.2154 13.4238 16.8129 13.8945 16.5256 14.435C16.4963 14.513 16.4719 14.5929 16.4526 14.674C16.3869 15.2885 16.4531 15.91 16.6466 16.497L16.7086 16.785C17.0736 18.485 17.2566 19.334 16.9376 19.701C16.8199 19.8371 16.6648 19.9359 16.4916 19.985C16.0316 20.115 15.3776 19.565 14.0716 18.465C13.2136 17.743 12.7846 17.382 12.2916 17.301C12.098 17.269 11.9003 17.269 11.7066 17.301C11.2136 17.382 10.7846 17.743 9.92665 18.465C8.61965 19.565 7.96665 20.115 7.50665 19.985C7.33347 19.9359 7.17844 19.8371 7.06065 19.701C6.74165 19.335 6.92465 18.485 7.28965 16.785L7.35165 16.497C7.54526 15.9101 7.6114 15.2885 7.54565 14.674C7.52642 14.5929 7.50204 14.513 7.47265 14.435C7.18567 13.8966 6.78426 13.4276 6.29665 13.061L5.84965 12.641C4.50965 11.382 3.83965 10.752 4.03265 10.159C4.22565 9.566 5.12565 9.483 6.93265 9.317L7.13265 9.299C7.85423 9.33136 8.57107 9.16719 9.20665 8.824C9.62665 8.502 9.83265 7.971 10.2446 6.91L10.2786 6.817Z" stroke="#F8C3A7"/>
<path d="M10.2786 6.817C11.0086 4.939 11.3726 4 12.0006 4C12.6286 4 12.9926 4.939 13.7226 6.817L13.7566 6.904C14.1686 7.965 14.3746 8.496 14.7946 8.818C15.4302 9.16119 16.1471 9.32536 16.8686 9.293L17.0686 9.311C18.8686 9.478 19.7756 9.561 19.9686 10.154C20.1616 10.747 19.4916 11.376 18.1516 12.636L17.7046 13.056C17.2154 13.4238 16.8129 13.8945 16.5256 14.435C16.4963 14.513 16.4719 14.5929 16.4526 14.674C16.3869 15.2885 16.4531 15.91 16.6466 16.497L16.7086 16.785C17.0736 18.485 17.2566 19.334 16.9376 19.701C16.8199 19.8371 16.6648 19.9359 16.4916 19.985C16.0316 20.115 15.3776 19.565 14.0716 18.465C13.2136 17.743 12.7846 17.382 12.2916 17.301C12.098 17.269 11.9003 17.269 11.7066 17.301C11.2136 17.382 10.7846 17.743 9.92665 18.465C8.61965 19.565 7.96665 20.115 7.50665 19.985C7.33347 19.9359 7.17844 19.8371 7.06065 19.701C6.74165 19.335 6.92465 18.485 7.28965 16.785L7.35165 16.497C7.54526 15.9101 7.6114 15.2885 7.54565 14.674C7.52642 14.5929 7.50204 14.513 7.47265 14.435C7.18567 13.8966 6.78426 13.4276 6.29665 13.061L5.84965 12.641C4.50965 11.382 3.83965 10.752 4.03265 10.159C4.22565 9.566 5.12565 9.483 6.93265 9.317L7.13265 9.299C7.85423 9.33136 8.57107 9.16719 9.20665 8.824C9.62665 8.502 9.83265 7.971 10.2446 6.91L10.2786 6.817Z" stroke="#FBE1D3"/>
<path d="M10.2786 6.817C11.0086 4.939 11.3726 4 12.0006 4C12.6286 4 12.9926 4.939 13.7226 6.817L13.7566 6.904C14.1686 7.965 14.3746 8.496 14.7946 8.818C15.4302 9.16119 16.1471 9.32536 16.8686 9.293L17.0686 9.311C18.8686 9.478 19.7756 9.561 19.9686 10.154C20.1616 10.747 19.4916 11.376 18.1516 12.636L17.7046 13.056C17.2154 13.4238 16.8129 13.8945 16.5256 14.435C16.4963 14.513 16.4719 14.5929 16.4526 14.674C16.3869 15.2885 16.4531 15.91 16.6466 16.497L16.7086 16.785C17.0736 18.485 17.2566 19.334 16.9376 19.701C16.8199 19.8371 16.6648 19.9359 16.4916 19.985C16.0316 20.115 15.3776 19.565 14.0716 18.465C13.2136 17.743 12.7846 17.382 12.2916 17.301C12.098 17.269 11.9003 17.269 11.7066 17.301C11.2136 17.382 10.7846 17.743 9.92665 18.465C8.61965 19.565 7.96665 20.115 7.50665 19.985C7.33347 19.9359 7.17844 19.8371 7.06065 19.701C6.74165 19.335 6.92465 18.485 7.28965 16.785L7.35165 16.497C7.54526 15.9101 7.6114 15.2885 7.54565 14.674C7.52642 14.5929 7.50204 14.513 7.47265 14.435C7.18567 13.8966 6.78426 13.4276 6.29665 13.061L5.84965 12.641C4.50965 11.382 3.83965 10.752 4.03265 10.159C4.22565 9.566 5.12565 9.483 6.93265 9.317L7.13265 9.299C7.85423 9.33136 8.57107 9.16719 9.20665 8.824C9.62665 8.502 9.83265 7.971 10.2446 6.91L10.2786 6.817Z" stroke="#ED6922"/>
</svg>
