<svg width="40" height="42" viewBox="0 0 40 42" fill="none" xmlns="http://www.w3.org/2000/svg">
<path d="M26 9.91841V17C26 17.5523 25.5523 18 25 18H15C14.4477 18 14 17.5523 14 17V9.91841C14 9.63738 14.1182 9.36933 14.3258 9.17986L19.3258 4.61547C19.7077 4.26686 20.2923 4.26686 20.6742 4.61547L25.6742 9.17986C25.8818 9.36933 26 9.63738 26 9.91841Z" stroke="#ABABAB" stroke-width="1.5" stroke-linecap="round"/>
<path d="M16.8404 35.08H23.1104V37.72H16.8404V35.08ZM22.0904 35.87H17.8704V36.93H22.0904V35.87ZM16.2704 29.39H23.6604V30.2H16.2704V29.39ZM19.9804 30.5C21.9004 30.5 22.9804 30.94 22.9804 31.8C22.9804 32.65 21.9004 33.09 19.9804 33.09C18.0604 33.09 16.9804 32.65 16.9804 31.8C16.9804 30.94 18.0604 30.5 19.9804 30.5ZM19.9804 31.22C18.7504 31.22 18.1004 31.41 18.1004 31.8C18.1004 32.18 18.7504 32.38 19.9804 32.38C21.2204 32.38 21.8604 32.18 21.8604 31.8C21.8604 31.41 21.2204 31.22 19.9804 31.22ZM19.4604 28.59H20.5004V29.94H19.4604V28.59ZM15.8504 33.67H24.1104V34.49H15.8504V33.67ZM19.4604 32.84H20.5004V34.11H19.4604V32.84Z" fill="#898989"/>
</svg>
