<svg width="40" height="42" viewBox="0 0 40 42" fill="none" xmlns="http://www.w3.org/2000/svg">
<path d="M26 10L28.2929 7.70711C28.6834 7.31658 28.6834 6.68342 28.2929 6.29289L25.7071 3.70711C25.3166 3.31658 24.6834 3.31658 24.2929 3.70711L22 6M26 10L16 20H12V16L22 6M26 10L22 6" stroke="#ABABAB" stroke-width="1.5" stroke-linecap="round" stroke-linejoin="round"/>
<path d="M17.8506 28.69H18.9006V37.83H17.8506V28.69ZM15.1706 29.66H16.2006C16.2006 32.37 15.1206 34.67 11.9806 36.2L11.4306 35.36C14.0606 34.09 15.1706 32.28 15.1706 29.84V29.66ZM11.8806 29.66H15.6406V30.5H11.8806V29.66ZM20.3498 33.66H28.6298V34.5H20.3498V33.66ZM21.3898 28.9H27.5898V31.23H22.4398V32.35H21.3998V30.47H26.5598V29.7H21.3898V28.9ZM21.3998 32.03H27.7798V32.84H21.3998V32.03ZM23.9698 32.43H25.0098V34.1H23.9698V32.43ZM21.2698 35.12H27.6498V37.77H26.5998V35.96H21.2698V35.12Z" fill="#898989"/>
</svg>
