<svg width="40" height="30" viewBox="0 0 40 30"  fill="none" xmlns="http://www.w3.org/2000/svg">
<path d="M23.9999 8H25.1596C26.1998 8 27.0663 8.79732 27.1527 9.83391L27.8194 17.8339C27.9165 18.9999 26.9964 20 25.8263 20H14.1735C13.0034 20 12.0832 18.9999 12.1804 17.8339L12.8471 9.83391C12.9334 8.79732 13.8 8 14.8401 8H15.9999M23.9999 8H15.9999M23.9999 8L23.9999 7C23.9999 5.93913 23.5784 4.92172 22.8283 4.17157C22.0782 3.42143 21.0607 3 19.9999 3C18.939 3 17.9216 3.42143 17.1715 4.17157C16.4213 4.92172 15.9999 5.93913 15.9999 7L15.9999 8M23.9999 8L23.9999 12M15.9999 8L15.9999 12" stroke="url(#paint0_linear_234_12464)" stroke-width="1.5" stroke-linecap="round" stroke-linejoin="round"/>
<defs>
<linearGradient id="paint0_linear_234_12464" x1="19.9999" y1="3" x2="19.9999" y2="20" gradientUnits="userSpaceOnUse">
<stop stop-color="#ED6922"/>
<stop offset="1" stop-color="#EE2B00"/>
</linearGradient>
<linearGradient id="paint1_linear_234_12464" x1="20" y1="24" x2="20" y2="42" gradientUnits="userSpaceOnUse">
<stop stop-color="#ED6922"/>
<stop offset="1" stop-color="#EE2B00"/>
</linearGradient>
</defs>
</svg>
