<svg width="40" height="42" viewBox="0 0 40 42" fill="none" xmlns="http://www.w3.org/2000/svg">
<path d="M23.9999 8H25.1596C26.1998 8 27.0663 8.79732 27.1527 9.83391L27.8194 17.8339C27.9165 18.9999 26.9964 20 25.8263 20H14.1735C13.0034 20 12.0832 18.9999 12.1804 17.8339L12.8471 9.83391C12.9334 8.79732 13.8 8 14.8401 8H15.9999M23.9999 8H15.9999M23.9999 8L23.9999 7C23.9999 5.93913 23.5784 4.92172 22.8283 4.17157C22.0782 3.42143 21.0607 3 19.9999 3C18.939 3 17.9216 3.42143 17.1715 4.17157C16.4213 4.92172 15.9999 5.93913 15.9999 7L15.9999 8M23.9999 8L23.9999 12M15.9999 8L15.9999 12" stroke="url(#paint0_linear_234_12464)" stroke-width="1.5" stroke-linecap="round" stroke-linejoin="round"/>
<path d="M13.5108 33.9H14.5508V36.32H13.5108V33.9ZM16.4408 33.9H17.4808V36.32H16.4408V33.9ZM11.3608 35.85H19.6408V36.71H11.3608V35.85ZM14.9008 29.24H15.8108V29.92C15.8108 31.83 14.1408 33.37 12.0308 33.75L11.6008 32.89C13.4308 32.59 14.9008 31.29 14.9008 29.92V29.24ZM15.0908 29.24H16.0108V29.92C16.0108 31.3 17.4708 32.6 19.3108 32.89L18.8808 33.75C16.7708 33.36 15.0908 31.84 15.0908 29.92V29.24ZM20.76 29.43H25.67V30.28H20.76V29.43ZM20.63 33.73L20.51 32.86C22.06 32.86 24.25 32.84 26.06 32.6L26.14 33.37C24.29 33.69 22.15 33.73 20.63 33.73ZM21.58 30.07H22.58V33.26H21.58V30.07ZM23.83 30.07H24.85V33.26H23.83V30.07ZM26.84 28.7H27.89V34.25H26.84V28.7ZM24.85 34.44C26.77 34.44 27.95 35.06 27.95 36.12C27.95 37.2 26.77 37.82 24.85 37.82C22.93 37.82 21.76 37.2 21.76 36.12C21.76 35.06 22.93 34.44 24.85 34.44ZM24.85 35.25C23.54 35.25 22.8 35.56 22.8 36.12C22.8 36.7 23.54 37.01 24.85 37.01C26.16 37.01 26.9 36.7 26.9 36.12C26.9 35.56 26.16 35.25 24.85 35.25Z" fill="url(#paint1_linear_234_12464)"/>
<defs>
<linearGradient id="paint0_linear_234_12464" x1="19.9999" y1="3" x2="19.9999" y2="20" gradientUnits="userSpaceOnUse">
<stop stop-color="#ED6922"/>
<stop offset="1" stop-color="#EE2B00"/>
</linearGradient>
<linearGradient id="paint1_linear_234_12464" x1="20" y1="24" x2="20" y2="42" gradientUnits="userSpaceOnUse">
<stop stop-color="#ED6922"/>
<stop offset="1" stop-color="#EE2B00"/>
</linearGradient>
</defs>
</svg>
