<svg width="40" height="43" viewBox="0 0 40 43" fill="none" xmlns="http://www.w3.org/2000/svg">
<path fill-rule="evenodd" clip-rule="evenodd" d="M22.0991 6.09966C21.0579 6.34315 19.8447 6.85612 19.0242 7.59513C17.9227 6.60256 16.5565 6.02303 15.1283 5.94259C13.8703 5.74234 12.586 5.91722 11.4121 6.4486C11.0862 6.60639 10.7781 6.80492 10.4943 7.04021C10.3906 7.12674 10.3111 7.20198 10.2558 7.25841C10.2282 7.28663 10.2057 7.31108 10.1893 7.32895L10.1685 7.35247L10.1616 7.36093L10.1556 7.36281C10.0558 7.48153 10.0003 7.63648 10 7.79735V19.3755C10.0002 19.4901 10.0281 19.6027 10.0811 19.7018C10.1341 19.8009 10.2101 19.883 10.3016 19.9398C10.3934 19.9972 10.4971 20.0281 10.603 20.0298C10.7088 20.0314 10.8133 20.0037 10.9066 19.9492C12.1394 19.2267 13.5989 19.0083 14.9831 19.2382H15.0099C16.3814 19.3522 17.6079 19.8369 18.5674 20.822C18.6335 20.8899 18.7129 20.9407 18.7995 20.9707C18.9465 21.0128 19.1011 21.0128 19.2481 20.9707C19.3349 20.9408 19.4144 20.8901 19.4807 20.8222C19.547 20.7543 19.5983 20.671 19.6309 20.5784C19.7967 20.4213 19.9762 20.2821 20.1667 20.1627C21.0531 19.637 22.032 19.3219 23.0385 19.2382H23.0653C24.4495 19.0083 25.9254 19.2747 27.1583 19.9972C27.2516 20.0517 27.356 20.0794 27.4619 20.0778C27.5677 20.0761 27.6714 20.0452 27.7632 19.9878C27.8547 19.931 27.9308 19.8489 27.9838 19.7498C28.0367 19.6507 28.0647 19.5381 28.0649 19.4235V10.7423C27.871 11.0016 26.9774 11.4573 26.8524 11.4573L26.8446 18.3983C25.6045 17.884 24.203 17.7269 22.8908 17.9421C22.2269 18.0166 21.5714 18.1628 20.9341 18.3785C20.4961 18.5272 20.0726 18.7225 19.6698 18.9616L19.6681 8.7332C20.212 8.24923 20.7321 7.81209 21.7778 7.59513C21.7778 7.28478 21.8536 6.55341 22.0991 6.09966ZM11.9212 7.6431C11.6817 7.75679 11.4552 7.90041 11.2462 8.07105L11.2272 8.08703L11.2194 18.355C13.4541 17.4282 16.3341 17.7396 18.3752 18.9598L18.383 8.7332C16.7089 7.10677 14.0119 6.71286 11.9212 7.6431Z" fill="#ABABAB"/>
<path d="M22.1593 12.5116C22.1103 12.6335 22.1088 12.7703 22.1551 12.8921C22.2015 13.0139 22.2919 13.1108 22.4066 13.1617L23.8817 13.7738C23.9971 13.8229 24.1269 13.8217 24.2427 13.7704C24.3586 13.7191 24.4511 13.6219 24.5001 13.4999L24.6856 13.0379L22.3448 12.0496L22.1593 12.5116ZM26.9331 4.37898C26.2828 4.10364 25.5638 4.05357 24.8791 4.23593C24.1944 4.4183 23.5793 4.82374 23.1218 5.39413C22.6673 5.96406 22.3945 6.6691 22.3427 7.40749C22.2909 8.14588 22.4629 8.87943 22.8338 9.50226L22.4124 10.5516C22.3634 10.6735 22.3619 10.8103 22.4082 10.9321C22.4546 11.0539 22.545 11.1508 22.6597 11.2017L25.2591 12.3316C25.3745 12.3807 25.5043 12.3795 25.6201 12.3282C25.736 12.2769 25.8285 12.1797 25.8775 12.0577L26.2972 11.0125C26.9836 10.8476 27.6056 10.4583 28.0738 9.90047C28.542 9.34264 28.8323 8.64505 28.903 7.90794C28.9736 7.17084 28.821 6.43217 28.4671 5.79809C28.1132 5.16401 27.5761 4.66717 26.9331 4.37898ZM26.1115 10.0418L25.6316 10.1584L25.2039 11.2233L23.4687 10.469L23.8963 9.40417L23.6389 8.96705C23.3714 8.52288 23.2467 7.99844 23.2829 7.47015C23.319 6.94186 23.5141 6.43732 23.8398 6.03005C24.1655 5.62278 24.6047 5.33406 25.0935 5.20597C25.5822 5.07788 26.0949 5.1171 26.557 5.31793C27.019 5.51875 27.4061 5.87068 27.662 6.32244C27.9179 6.7742 28.0291 7.30217 27.9795 7.82943C27.9298 8.35669 27.7219 8.85569 27.3861 9.2537C27.0502 9.65172 26.6031 9.92762 26.1115 10.0418Z" fill="#ABABAB" stroke="#ABABAB" stroke-width="0.4"/>
<path d="M13.6612 28.6922H14.6612V37.8322H13.6612V28.6922ZM12.3612 32.2522H14.0112V33.1022H12.3612V32.2522ZM11.6412 28.8622H12.6312V37.3922H11.6412V28.8622ZM7.15117 29.6922H10.6912V35.4522H7.15117V29.6922ZM9.71117 30.5222H8.13117V34.6322H9.71117V30.5222ZM22.3804 28.6922H23.4204V37.8322H22.3804V28.6922ZM20.4104 32.2822H22.8704V33.1422H20.4104V32.2822ZM19.4204 29.6622H20.4504C20.4504 32.3422 19.4604 34.6222 16.3704 36.1722L15.8104 35.3522C18.4304 34.0522 19.4204 32.2422 19.4204 29.8422V29.6622ZM16.2204 29.6622H19.9704V30.5022H16.2204V29.6622ZM27.1896 29.7022H28.0596V30.5622C28.0596 32.2622 27.1096 33.7322 25.4796 34.2922L24.9396 33.4722C26.3796 32.9822 27.1896 31.7922 27.1896 30.5622V29.7022ZM27.3996 29.7022H28.2596V30.5622C28.2596 31.7322 29.0796 32.8422 30.4896 33.3022L29.9596 34.1222C28.3496 33.5922 27.3996 32.1922 27.3996 30.5622V29.7022ZM25.2196 29.4022H30.2096V30.2422H25.2196V29.4022ZM31.3396 28.7022H32.3896V35.3422H31.3396V28.7022ZM26.4196 36.8022H32.6496V37.6522H26.4196V36.8022ZM26.4196 34.7322H27.4696V37.2022H26.4196V34.7322Z" fill="#898989"/>
</svg>
